<svg version="1.1" id="Layer_1" xmlns:x="ns_extend;" xmlns:i="ns_ai;" xmlns:graph="ns_graphs;" xmlns="http://www.w3.org/2000/svg" xmlns:xlink="http://www.w3.org/1999/xlink" x="0px" y="0px" viewBox="0 0 302.9 121" style="enable-background:new 0 0 302.9 121;" xml:space="preserve">
 <style type="text/css">
  .st0{fill:#FFFFFF;}
	.st1{fill:#FF5000;}
 </style>
 <metadata>
  <sfw xmlns="ns_sfw;">
   <slices>
   </slices>
   <sliceSourceBounds bottomLeftOrigin="true" height="121" width="302.9" x="-117.5" y="-148.4">
   </sliceSourceBounds>
  </sfw>
 </metadata>
 <g>
  <path class="st0" d="M127.6,99.2c0-4.2-0.1-24.4,0-36.2c0-2.3,0.3-4.7,0.6-7c1-7.5,4.9-11.1,12.4-11.8c3-0.3,6-0.3,9.1-0.5V32.7
		c-7.2,0.1-14.3-0.6-21.2,1.3c-7.9,2.2-13.1,7.1-14.6,15.4c-0.5,2.8-0.8,5.7-0.8,8.6v41.3H127.6z">
  </path>
  <path class="st0" d="M105,99.2V50.6c-0.4-8.6-6.3-15.1-14.8-16.8c-3.9-0.8-8-1-11.9-1.1c-6.2-0.2-12.4-0.1-18.9-0.1V11.4H44.9v87.7
		h14.7V44.2c7.1,0,14-0.2,20.9,0.1c4.3,0.2,7.5,2.6,8.8,6.8c0.9,3,1.4,6.3,1.5,9.5c0.2,11.9,0.1,37.5,0.1,38.6H105z">
  </path>
  <path class="st0" d="M231.8,32.7h13.8c0.8,0,1.8,1.1,2.1,2c5.8,15.1,18.9,49.6,19.6,51.2c1.6-3.3,13.9-35.3,19.8-51
		c0.6-1.7,1.4-2.2,3.2-2.2h12.6c-0.3,0.8-16.9,41.6-25,61.3c-1.7,4-4.3,6.2-8.8,6.1c-1,0-1.9,0-2.9,0c-4.6,0.2-7.5-2.1-9.2-6.3
		C250.6,78.1,233.9,37.8,231.8,32.7">
  </path>
  <path class="st0" d="M173,121c4.4,0,8.5-0.1,12.6,0c1.7,0.1,2.5-0.4,3.3-2.1c12.4-27.7,24.9-55.4,37.4-83.1c0.4-0.9,0.7-1.8,1.2-3
		c-4.6,0-8.8,0.1-13,0c-1.5,0-2.1,0.5-2.7,1.8c-3.3,7.6-6.6,15.1-10,22.7c-3.9,8.8-7.8,17.5-11.8,26.6c-1.1-2.5-2-4.6-2.9-6.8
		C181.4,63.1,175.5,49,169.6,35c-0.3-0.8-1.2-2-1.9-2c-4.6-0.2-9.2-0.1-14-0.1c0.3,0.7,0.4,1.2,0.6,1.7
		c8.9,19.9,17.8,39.9,26.8,59.8c1.5,3.3,1.9,6,0.1,9.4C178.2,109.2,175.8,115,173,121">
  </path>
  <path class="st1" d="M302.9,25.4l-29.4-13.3L247.2,0.2c-1.5-0.7-3.1,0.4-3.1,2v7.6c0,1.2-0.9,2.1-2.1,2.2l-76.2,6.1L75,25.4h0
		H302.9z">
  </path>
  <path class="st0" d="M286.4,97c0-0.5,0.1-1,0.4-1.5c0.3-0.5,0.6-0.8,1.1-1.1c0.5-0.3,1-0.4,1.5-0.4c0.5,0,1,0.1,1.5,0.4
		c0.5,0.3,0.8,0.6,1.1,1.1c0.3,0.5,0.4,1,0.4,1.5c0,0.5-0.1,1-0.4,1.5c-0.3,0.5-0.6,0.8-1.1,1.1c-0.5,0.3-1,0.4-1.5,0.4
		c-0.6,0-1.1-0.1-1.5-0.4c-0.5-0.3-0.8-0.6-1.1-1.1C286.6,98.1,286.4,97.6,286.4,97 M286.9,97c0,0.5,0.1,0.9,0.3,1.3
		c0.2,0.4,0.5,0.7,0.9,0.9c0.4,0.2,0.8,0.3,1.3,0.3c0.5,0,0.9-0.1,1.3-0.3c0.4-0.2,0.7-0.5,0.9-0.9c0.2-0.4,0.3-0.8,0.3-1.3
		c0-0.4-0.1-0.9-0.3-1.3c-0.2-0.4-0.5-0.7-0.9-0.9c-0.4-0.2-0.8-0.3-1.3-0.3c-0.5,0-0.9,0.1-1.3,0.3c-0.4,0.2-0.7,0.5-0.9,0.9
		C287.1,96.1,286.9,96.6,286.9,97 M290.7,96.3c0,0.5-0.2,0.8-0.6,0.9l1,1.6h-0.8l-0.8-1.4H289v1.4h-0.8v-3.6h1.1
		c0.5,0,0.8,0.1,1,0.3C290.6,95.7,290.7,95.9,290.7,96.3 M289,96.9h0.3c0.2,0,0.3,0,0.5-0.1c0.1-0.1,0.2-0.2,0.2-0.4
		c0-0.2,0-0.3-0.1-0.4c-0.1-0.1-0.3-0.1-0.5-0.1H289V96.9z">
  </path>
  <path class="st0" d="M36.7,88.2v11.1c-7.2-0.1-14.3,0.6-21.2-1.3C7.6,95.8,2.4,90.8,0.9,82.6c-0.5-2.8-0.8-5.7-0.8-8.6
		C0,61,0,12.5,0.1,11.7h14.5c0,0.2,0,9.8,0,21.2h21.7v11.3H14.6c0,10.2,0,20,0,24.6c0,2.3,0.3,4.7,0.6,7c1,7.4,4.9,11.1,12.4,11.8
		C30.5,88,33.6,88,36.7,88.2">
  </path>
 </g>
</svg>